<svg id="visual" viewBox="0 0 900 450" width="900" height="450" xmlns="http://www.w3.org/2000/svg" xmlns:xlink="http://www.w3.org/1999/xlink" version="1.1"><rect x="0" y="0" width="900" height="450" fill="#ffffff"></rect><defs><linearGradient id="grad1_0" x1="50%" y1="0%" x2="100%" y2="100%"><stop offset="10%" stop-color="#6600ff" stop-opacity="1"></stop><stop offset="90%" stop-color="#6600ff" stop-opacity="1"></stop></linearGradient></defs><defs><linearGradient id="grad1_1" x1="50%" y1="0%" x2="100%" y2="100%"><stop offset="10%" stop-color="#6600ff" stop-opacity="1"></stop><stop offset="90%" stop-color="#c391ff" stop-opacity="1"></stop></linearGradient></defs><defs><linearGradient id="grad1_2" x1="50%" y1="0%" x2="100%" y2="100%"><stop offset="10%" stop-color="#ffffff" stop-opacity="1"></stop><stop offset="90%" stop-color="#c391ff" stop-opacity="1"></stop></linearGradient></defs><defs><linearGradient id="grad2_0" x1="0%" y1="0%" x2="50%" y2="100%"><stop offset="10%" stop-color="#6600ff" stop-opacity="1"></stop><stop offset="90%" stop-color="#6600ff" stop-opacity="1"></stop></linearGradient></defs><defs><linearGradient id="grad2_1" x1="0%" y1="0%" x2="50%" y2="100%"><stop offset="10%" stop-color="#c391ff" stop-opacity="1"></stop><stop offset="90%" stop-color="#6600ff" stop-opacity="1"></stop></linearGradient></defs><defs><linearGradient id="grad2_2" x1="0%" y1="0%" x2="50%" y2="100%"><stop offset="10%" stop-color="#c391ff" stop-opacity="1"></stop><stop offset="90%" stop-color="#ffffff" stop-opacity="1"></stop></linearGradient></defs><g transform="translate(900, 0)"><path d="M0 360C-50.2 357 -100.4 354.1 -137 330.7C-173.6 307.4 -196.6 263.8 -230.5 230.5C-264.4 197.3 -309.2 174.4 -332.6 137.8C-356 101.1 -358 50.5 -360 0L0 0Z" fill="#e4c8ff"></path><path d="M0 240C-33.5 238 -66.9 236 -91.3 220.5C-115.7 205 -131.1 175.8 -153.7 153.7C-176.3 131.5 -206.1 116.3 -221.7 91.8C-237.3 67.4 -238.7 33.7 -240 0L0 0Z" fill="#9c58ff"></path><path d="M0 120C-16.7 119 -33.5 118 -45.7 110.2C-57.9 102.5 -65.5 87.9 -76.8 76.8C-88.1 65.8 -103.1 58.1 -110.9 45.9C-118.7 33.7 -119.3 16.8 -120 0L0 0Z" fill="#6600ff"></path></g><g transform="translate(0, 450)"><path d="M0 -360C42.1 -336.2 84.2 -312.3 120.2 -290.1C156.2 -267.9 186 -247.2 224.2 -224.2C262.3 -201.1 308.6 -175.5 332.6 -137.8C356.6 -100 358.3 -50 360 0L0 0Z" fill="#e4c8ff"></path><path d="M0 -240C28.1 -224.1 56.1 -208.2 80.1 -193.4C104.1 -178.6 124 -164.8 149.4 -149.4C174.8 -134 205.7 -117 221.7 -91.8C237.7 -66.7 238.9 -33.3 240 0L0 0Z" fill="#9c58ff"></path><path d="M0 -120C14 -112.1 28.1 -104.1 40.1 -96.7C52.1 -89.3 62 -82.4 74.7 -74.7C87.4 -67 102.9 -58.5 110.9 -45.9C118.9 -33.3 119.4 -16.7 120 0L0 0Z" fill="#6600ff"></path></g></svg>