<svg id="visual" viewBox="0 0 960 540" width="960" height="540" xmlns="http://www.w3.org/2000/svg" xmlns:xlink="http://www.w3.org/1999/xlink" version="1.1"><rect x="0" y="0" width="960" height="540" fill="#ffffff"></rect><defs><linearGradient id="grad1_0" x1="43.8%" y1="0%" x2="100%" y2="100%"><stop offset="14.444444444444446%" stop-color="#5600d7" stop-opacity="1"></stop><stop offset="85.55555555555554%" stop-color="#5600d7" stop-opacity="1"></stop></linearGradient></defs><defs><linearGradient id="grad1_1" x1="43.8%" y1="0%" x2="100%" y2="100%"><stop offset="14.444444444444446%" stop-color="#5600d7" stop-opacity="1"></stop><stop offset="85.55555555555554%" stop-color="#b88cee" stop-opacity="1"></stop></linearGradient></defs><defs><linearGradient id="grad1_2" x1="43.8%" y1="0%" x2="100%" y2="100%"><stop offset="14.444444444444446%" stop-color="#ffffff" stop-opacity="1"></stop><stop offset="85.55555555555554%" stop-color="#b88cee" stop-opacity="1"></stop></linearGradient></defs><defs><linearGradient id="grad2_0" x1="0%" y1="0%" x2="56.3%" y2="100%"><stop offset="14.444444444444446%" stop-color="#5600d7" stop-opacity="1"></stop><stop offset="85.55555555555554%" stop-color="#5600d7" stop-opacity="1"></stop></linearGradient></defs><defs><linearGradient id="grad2_1" x1="0%" y1="0%" x2="56.3%" y2="100%"><stop offset="14.444444444444446%" stop-color="#b88cee" stop-opacity="1"></stop><stop offset="85.55555555555554%" stop-color="#5600d7" stop-opacity="1"></stop></linearGradient></defs><defs><linearGradient id="grad2_2" x1="0%" y1="0%" x2="56.3%" y2="100%"><stop offset="14.444444444444446%" stop-color="#b88cee" stop-opacity="1"></stop><stop offset="85.55555555555554%" stop-color="#ffffff" stop-opacity="1"></stop></linearGradient></defs><g transform="translate(960, 0)"><path d="M0 486C-91.6 477.1 -183.1 468.1 -243 420.9C-302.9 373.6 -331.1 288 -366.3 211.5C-401.6 135 -443.8 67.5 -486 0L0 0Z" fill="#ddc5f7"></path><path d="M0 324C-61 318 -122.1 312.1 -162 280.6C-201.9 249.1 -220.7 192 -244.2 141C-267.7 90 -295.9 45 -324 0L0 0Z" fill="#8e52e3"></path><path d="M0 162C-30.5 159 -61 156 -81 140.3C-101 124.5 -110.4 96 -122.1 70.5C-133.9 45 -147.9 22.5 -162 0L0 0Z" fill="#5600d7"></path></g><g transform="translate(0, 540)"><path d="M0 -486C69.1 -446.5 138.2 -407.1 214.5 -371.5C290.8 -336 374.4 -304.3 420.9 -243C467.3 -181.7 476.7 -90.9 486 0L0 0Z" fill="#ddc5f7"></path><path d="M0 -324C46.1 -297.7 92.1 -271.4 143 -247.7C193.9 -224 249.6 -202.8 280.6 -162C311.6 -121.2 317.8 -60.6 324 0L0 0Z" fill="#8e52e3"></path><path d="M0 -162C23 -148.8 46.1 -135.7 71.5 -123.8C96.9 -112 124.8 -101.4 140.3 -81C155.8 -60.6 158.9 -30.3 162 0L0 0Z" fill="#5600d7"></path></g></svg>